<svg width="21" height="20" viewBox="0 0 21 20" fill="none" xmlns="http://www.w3.org/2000/svg"><path d="M10.247 2.262a.465.465 0 0 1 .836 0l2.215 4.515a.47.47 0 0 0 .35.256l4.952.724a.47.47 0 0 1 .258.8l-3.582 3.515a.47.47 0 0 0-.134.416l.845 4.962a.467.467 0 0 1-.676.495l-4.429-2.343a.46.46 0 0 0-.434 0l-4.429 2.343a.467.467 0 0 1-.676-.495l.846-4.962a.47.47 0 0 0-.135-.416L2.472 8.558a.47.47 0 0 1 .258-.8l4.951-.725a.47.47 0 0 0 .352-.256z" fill="gold" stroke="#F1CB00" stroke-width="2" stroke-linejoin="round"/></svg>