<svg width="24" height="24" viewBox="0 0 24 24" fill="none" xmlns="http://www.w3.org/2000/svg"><path fill-rule="evenodd" clip-rule="evenodd" d="M17.498 13.942c-.298-.145-1.766-.841-2.04-.937s-.473-.145-.672.144c-.199.288-.771.937-.945 1.13-.174.191-.349.216-.647.071-.299-.144-1.26-.448-2.401-1.43-.888-.763-1.487-1.707-1.661-1.995s-.019-.444.13-.588c.135-.129.3-.336.448-.505.15-.168.2-.288.3-.48s.049-.36-.026-.505c-.074-.144-.672-1.562-.92-2.139-.243-.561-.489-.485-.672-.494a13 13 0 0 0-.572-.01c-.2 0-.523.072-.797.36-.273.289-1.045.986-1.045 2.403s1.07 2.788 1.22 2.98 2.105 3.102 5.1 4.35c.713.297 1.269.474 1.702.607.716.219 1.367.188 1.881.114.574-.083 1.767-.697 2.015-1.37.25-.673.25-1.25.174-1.37-.074-.12-.273-.192-.572-.336m-5.448 7.176h-.004c-1.782 0-3.53-.462-5.055-1.335l-.363-.208-3.759.951 1.003-3.536-.236-.362a9.3 9.3 0 0 1-1.518-5.1c.002-5.283 4.457-9.581 9.936-9.581 2.653 0 5.147.999 7.022 2.81s2.907 4.219 2.906 6.78c-.002 5.283-4.457 9.581-9.932 9.581m8.453-17.737C18.247 1.2 15.247 0 12.05 0 5.464 0 .103 5.17.1 11.528c0 2.031.55 4.015 1.595 5.763L0 23.265l6.335-1.603a12.3 12.3 0 0 0 5.71 1.403h.005c6.586 0 11.947-5.172 11.95-11.528.001-3.08-1.24-5.977-3.497-8.156" fill="#063643"/></svg>