<svg width="200" height="200" viewBox="0 0 200 200" fill="none" xmlns="http://www.w3.org/2000/svg"><path fill-rule="evenodd" clip-rule="evenodd" d="M91.88 60.761a21.63 21.63 0 0 1 16.24 0c.085-.306.256-.578.497-.809a1.75 1.75 0 0 1 1.343-.492 24.46 24.46 0 0 1 20.208 12.807c2.452 4.535 3.048 9.943 2.337 15-.502 3.521-1.655 7.022-3.435 10.1a1.8 1.8 0 0 1-1.184.859c-.546.18-1.168.1-1.659-.271a46.5 46.5 0 0 1-4.533-3.918 47.3 47.3 0 0 1-1.189 11.476q-.016.054-.025.1a11.58 11.58 0 0 1-10.143 8.377 22.92 22.92 0 0 1-20.674 0 11.56 11.56 0 0 1-10.139-8.377l-.03-.1a47 47 0 0 1-1.183-11.476 47 47 0 0 1-4.538 3.918 1.8 1.8 0 0 1-1.66.27 1.8 1.8 0 0 1-1.183-.858c-1.78-3.079-2.934-6.579-3.435-10.1-.712-5.057-.11-10.465 2.337-15A24.47 24.47 0 0 1 90.039 59.46c.516-.03.968.14 1.344.492q.367.348.496.809m19.85 2.767c0 .025.006.05.006.075a42.17 42.17 0 0 0 15.102 30.203c2.818-6.051 3.31-13.946.141-19.812a20.87 20.87 0 0 0-15.259-10.712q.001.127.01.246m-3.555 1.24a18 18 0 0 0-16.351.006 45.8 45.8 0 0 1-9.567 24.824 43.4 43.4 0 0 0 .762 15.056 7.94 7.94 0 0 0 6.764 5.7c.25-.04.511-.025.767.045h.09a8 8 0 0 0 7.186-4.409q.136-.272.346-.477c-.02-1.105-.03-2.21-.02-3.31q-.315.18-.587.427c-.752.658-1.9.588-2.562-.16a1.83 1.83 0 0 1 .16-2.567 7.42 7.42 0 0 1 4.799-1.858h.075c1.77.03 3.47.683 4.799 1.858.747.663.822 1.813.16 2.567a1.823 1.823 0 0 1-2.562.16 3.6 3.6 0 0 0-.657-.472q-.009 1.666.02 3.325c.151.145.281.311.381.507a7.99 7.99 0 0 0 7.181 4.409h.095a1.8 1.8 0 0 1 .762-.045 7.94 7.94 0 0 0 6.764-5.7 43.4 43.4 0 0 0 .763-15.056 45.8 45.8 0 0 1-9.568-24.83m-11.718 47.726c2.342.437 4.744.437 7.085 0a11.7 11.7 0 0 1-3.54-3.144 11.7 11.7 0 0 1-3.545 3.144m-8.173-49.212A20.87 20.87 0 0 0 73.02 73.994c-3.168 5.866-2.677 13.76.14 19.812a42.17 42.17 0 0 0 15.124-30.524m14.16 23.514a7.77 7.77 0 0 1 5.536-2.768 7.82 7.82 0 0 1 5.806 2.15c.717.693.747 1.848.055 2.571a1.81 1.81 0 0 1-2.562.055 4.16 4.16 0 0 0-6.062.326 1.81 1.81 0 0 1-2.557.222 1.816 1.816 0 0 1-.216-2.556m-16.361 0a7.77 7.77 0 0 1 5.535-2.768 7.82 7.82 0 0 1 5.807 2.15c.722.693.747 1.848.055 2.571a1.81 1.81 0 0 1-2.562.055 4.18 4.18 0 0 0-3.104-1.15 4.17 4.17 0 0 0-2.958 1.477 1.806 1.806 0 0 1-2.553.22 1.817 1.817 0 0 1-.22-2.555" fill="#0F637A"/><path d="m65.199 57.48 1.114 1.236-1.867 1.683 2.285 2.535 2.349-2.117 1.114 1.236-3.71 3.343-7.801-8.656 3.71-3.343 1.115 1.236-2.35 2.117 2.173 2.412zm4.144-9.119c1.522-.925 2.858-.49 3.826 1.102l.191.313-1.48.9-.25-.413c-.433-.71-.882-.808-1.38-.505s-.618.746-.185 1.457c1.246 2.049 4.538.572 6.268 3.417.97 1.593.726 2.988-.81 3.922s-2.886.509-3.855-1.084l-.372-.612 1.479-.9.433.712c.433.711.9.776 1.399.474.498-.303.655-.75.222-1.46-1.246-2.05-4.537-.573-6.268-3.418-.969-1.593-.74-2.98.782-3.905m12.61-5.706.587 1.557-1.791.676 3.524 9.344-1.713.647-3.524-9.345-1.79.676-.589-1.558zm8.442-2.005c1.805-.308 2.864.54 3.178 2.38l.995 5.81c.314 1.839-.4 2.992-2.206 3.301l-2.856.49-1.967-11.491zm.636 10.03 1.017-.175c.575-.098.868-.452.728-1.273l-1.023-5.976c-.14-.82-.535-1.057-1.11-.958l-1.017.174zm17.62-8.732c-.577-.082-.984.179-1.101 1.003l-.177 1.236-1.714-.244.161-1.121c.263-1.846 1.336-2.769 3.116-2.515 1.779.254 2.551 1.44 2.288 3.286-.516 3.625-4.318 4.462-4.588 6.357a1.2 1.2 0 0 0-.019.25l3.427.488-.234 1.648-5.241-.747.202-1.418c.485-3.394 4.157-3.442 4.631-6.77.149-1.039-.175-1.371-.751-1.453m11.473 1.09c1.698.595 2.273 1.926 1.655 3.686l-2.004 5.72c-.618 1.76-1.897 2.442-3.595 1.847-1.697-.595-2.272-1.926-1.655-3.686l2.006-5.721c.616-1.76 1.896-2.441 3.593-1.846m-3.393 9.682c.55.192 1.001.015 1.276-.771l2.083-5.94c.275-.787.033-1.206-.516-1.4-.55-.192-1.001-.015-1.277.771l-2.081 5.94c-.276.787-.035 1.206.515 1.4m13.153-3.305c-.502-.296-.978-.21-1.401.507l-.635 1.075-1.491-.88.576-.975c.947-1.606 2.292-2.05 3.84-1.135s1.81 2.305.862 3.91c-1.862 3.154-5.695 2.476-6.668 4.125-.042.072-.085.144-.113.224l2.982 1.76-.847 1.433-4.557-2.69.727-1.234c1.743-2.953 5.155-1.595 6.865-4.49.533-.904.362-1.334-.14-1.63m10.514 5.853.919.82-7.756 8.701-1.368-1.218 5.918-6.638-1.057-.942.865-.97c1.056.942 1.746.643 2.479.247" fill="#222"/><path d="M49.64 131.38q0 1.22-.56 2.24-.56 1-1.72 1.62t-2.88.62h-2.12v5.04h-3.42v-14.04h5.54q1.68 0 2.84.58t1.74 1.6.58 2.34m-5.42 1.76q.98 0 1.46-.46t.48-1.3-.48-1.3-1.46-.46h-1.86v3.52zm10.62-6.28v14.04h-3.42v-14.04zm15.039 14.04h-3.42l-5.72-8.66v8.66h-3.42v-14.04h3.42l5.72 8.7v-8.7h3.42zm7.739-14.04q2.22 0 3.88.88a6.2 6.2 0 0 1 2.56 2.48q.92 1.58.92 3.66 0 2.06-.92 3.66-.9 1.6-2.58 2.48-1.66.88-3.86.88h-5.26v-14.04zm-.22 11.08q1.94 0 3.02-1.06t1.08-3-1.08-3.02-3.02-1.08h-1.62v8.16zm16.132 3.1q-1.98 0-3.64-.92a7 7 0 0 1-2.62-2.56q-.96-1.66-.96-3.72t.96-3.7a7 7 0 0 1 2.62-2.56q1.66-.92 3.64-.92t3.62.92a6.67 6.67 0 0 1 2.6 2.56q.959 1.64.959 3.7t-.96 3.72a6.85 6.85 0 0 1-2.6 2.56q-1.64.92-3.62.92m0-3.12q1.68 0 2.68-1.12 1.02-1.12 1.02-2.96 0-1.86-1.02-2.96-1-1.12-2.68-1.12-1.7 0-2.72 1.1-1.001 1.1-1 2.98-.001 1.86 1 2.98 1.02 1.1 2.72 1.1m16.243 2.98-2.92-5.3h-.82v5.3h-3.42v-14.04h5.74q1.659 0 2.82.58 1.18.58 1.76 1.6.58 1 .58 2.24 0 1.4-.8 2.5-.78 1.1-2.32 1.56l3.24 5.56zm-3.74-7.72h2.12q.94 0 1.4-.46.48-.46.48-1.3 0-.8-.48-1.26-.46-.46-1.4-.46h-2.12zm18.367 5.24h-5.24l-.84 2.48h-3.58l5.08-14.04h3.96l5.08 14.04h-3.62zm-.88-2.64-1.74-5.14-1.72 5.14zm22.786-8.92v14.04h-3.42v-8.42l-3.14 8.42h-2.76l-3.16-8.44v8.44h-3.42v-14.04h4.04l3.94 9.72 3.9-9.72zm11.199 11.56h-5.24l-.84 2.48h-3.58l5.08-14.04h3.96l5.08 14.04h-3.62zm-.88-2.64-1.74-5.14-1.72 5.14zm-68.384 17.6q0 1.22-.56 2.24-.56 1-1.72 1.62t-2.88.62h-2.12v5.04h-3.42v-14.04h5.54q1.68 0 2.84.58t1.74 1.6.58 2.34m-5.42 1.76q.98 0 1.46-.46t.48-1.3-.48-1.3-1.46-.46h-1.86v3.52zm10.62-3.54v2.84h4.58v2.64h-4.58v3.08h5.18v2.74h-8.6v-14.04h8.6v2.74zm17.501-2.74v2.74h-3.72v11.3h-3.42v-11.3h-3.72v-2.74zm6.796 14.18q-1.54 0-2.76-.5t-1.96-1.48q-.72-.98-.76-2.36h3.64q.08.78.54 1.2.46.4 1.2.4.76 0 1.2-.34.44-.36.44-.98 0-.52-.36-.86a2.7 2.7 0 0 0-.86-.56q-.5-.22-1.44-.5-1.36-.42-2.22-.84a4.1 4.1 0 0 1-1.48-1.24q-.62-.82-.62-2.14 0-1.96 1.42-3.06 1.42-1.12 3.7-1.12 2.32 0 3.74 1.12 1.42 1.1 1.52 3.08h-3.7q-.04-.68-.5-1.06-.46-.4-1.18-.4-.62 0-1 .34-.38.32-.38.94 0 .68.64 1.06t2 .82q1.36.46 2.2.88.86.42 1.48 1.22t.62 2.06q0 1.2-.62 2.18-.6.98-1.76 1.56t-2.74.58" fill="#063643"/></svg>